<svg width="21" height="21" viewBox="0 0 21 21" fill="none" xmlns="http://www.w3.org/2000/svg">
<g clip-path="url(#clip0_2046_21369)">
<path d="M18.6531 7.88612H17.4214C17.2418 7.88612 17.1135 7.80914 17.0365 7.65518C16.8056 7.29595 16.549 7.01369 16.2668 6.80841L16.1898 6.73143V2.95944H15.3815C14.5604 2.95944 13.7906 3.31867 13.0721 4.03715L12.9951 4.11413V3.8447C12.9951 2.94661 12.668 2.16398 12.0136 1.49683C11.3593 0.829671 10.5703 0.496094 9.64652 0.496094C8.74842 0.496094 7.97221 0.816842 7.31789 1.45834C6.66356 2.09983 6.3364 2.89529 6.3364 3.8447C6.3364 4.17828 6.36206 4.43488 6.41338 4.6145C5.72056 4.87109 5.01492 5.35863 4.29644 6.07711L2.64138 5.49976L1.98706 4.84543C1.62782 4.4862 1.24292 4.4862 0.832367 4.84543C0.498789 5.23033 0.498789 5.61523 0.832367 6.00013L1.8331 7.00086L3.21873 7.46274C2.57724 8.43781 2.25649 9.54118 2.25649 10.7729V12.0045L2.98779 18.7402C3.03911 19.1508 3.22515 19.4972 3.54589 19.7795C3.86664 20.0617 4.23229 20.2028 4.64285 20.2028H5.75905C6.09263 20.2028 6.41338 20.1002 6.7213 19.8949C7.02922 19.6896 7.23449 19.4074 7.33713 19.0481L7.91448 17.3931C8.76125 17.6497 9.68501 17.7395 10.6857 17.6625L11.1861 19.0481C11.494 19.7666 12.0201 20.1259 12.7642 20.1259H13.9189C14.3294 20.1259 14.6951 19.9783 15.0158 19.6832C15.3366 19.3881 15.5098 19.0353 15.5354 18.6248L15.8819 15.3531C16.626 14.609 17.1392 13.8392 17.4214 13.0437C17.4984 12.8385 17.6652 12.7358 17.9218 12.7358H18.0758C18.6916 12.7358 19.2305 12.5049 19.6923 12.043C20.1542 11.5811 20.3852 11.0423 20.3852 10.4264V9.54118C20.3338 9.0793 20.1478 8.68799 19.8271 8.36724C19.5063 8.0465 19.115 7.88612 18.6531 7.88612ZM9.7235 2.15115C10.1854 2.15115 10.5895 2.31794 10.9359 2.65152C11.2823 2.9851 11.4555 3.38282 11.4555 3.8447C11.4555 4.33224 11.2887 4.74279 10.9552 5.07637C10.6216 5.40995 10.211 5.57674 9.7235 5.57674C9.23596 5.52542 8.8254 5.33939 8.49183 5.01864C8.15825 4.69789 7.99146 4.30658 7.99146 3.8447C7.99146 3.38282 8.15825 2.9851 8.49183 2.65152C8.8254 2.31794 9.23596 2.15115 9.7235 2.15115ZM18.6531 10.5034C18.6531 10.683 18.589 10.837 18.4607 10.9653C18.3324 11.0936 18.1784 11.1578 17.9988 11.1578H17.8448C16.9211 11.1578 16.2411 11.6325 15.8049 12.5819C15.5739 13.1464 15.1377 13.7751 14.4962 14.4679L14.2268 14.6988L13.8034 18.5478H12.6872L11.7635 15.9305L11.1091 16.0075C10.8269 16.0588 10.4676 16.0844 10.0314 16.0844C9.28728 16.0844 8.49183 15.9561 7.64505 15.6995L6.83677 15.3531L5.75905 18.5478H4.64285L3.87306 11.9275V10.7729C3.87306 9.66948 4.20663 8.70724 4.87379 7.88612C5.18171 7.78348 5.37416 7.61669 5.45114 7.38576V7.2318C5.78471 6.89822 6.36206 6.51332 7.18317 6.07711C7.85033 6.8469 8.67144 7.2318 9.64652 7.2318C10.8525 7.2318 11.7763 6.74426 12.4178 5.76919H12.4948C12.854 5.94881 13.38 5.80768 14.0728 5.3458C14.1242 5.32014 14.2011 5.26241 14.3038 5.1726C14.4064 5.08279 14.4962 5.02505 14.5732 4.99939V7.46274L14.8041 7.73216C14.9581 7.88612 15.0992 8.01442 15.2275 8.11706L15.4392 8.32876L15.6124 8.54045C16.0743 9.25892 16.6773 9.61816 17.4214 9.61816H18.6531V10.5034ZM13.7264 7.88612C13.7264 8.11706 13.6495 8.30951 13.4955 8.46347C13.3415 8.61743 13.1491 8.69441 12.9181 8.69441C12.6872 8.69441 12.4948 8.61743 12.3408 8.46347C12.1868 8.30951 12.1099 8.11706 12.1099 7.88612C12.1099 7.65518 12.1868 7.46274 12.3408 7.30878C12.4948 7.15482 12.6872 7.07784 12.9181 7.07784C13.1491 7.07784 13.3415 7.15482 13.4955 7.30878C13.6495 7.46274 13.7264 7.65518 13.7264 7.88612Z" fill="white"/>
</g>
<defs>
<clipPath id="clip0_2046_21369">
<rect x="0.601562" y="0.496094" width="20.0147" height="19.7067" rx="5" fill="white"/>
</clipPath>
</defs>
</svg>
