<svg width="22" height="22" viewBox="0 0 22 22" fill="none" xmlns="http://www.w3.org/2000/svg">
<path d="M5.72949 1.83203C5.18248 1.83203 4.65788 2.04933 4.27108 2.43612C3.88429 2.82292 3.66699 3.34752 3.66699 3.89453V18.1029C3.66699 18.6499 3.88429 19.1745 4.27108 19.5613C4.65788 19.9481 5.18248 20.1654 5.72949 20.1654H12.6045C13.1482 20.1654 13.6699 19.9507 14.0561 19.5681C14.4424 19.1855 14.6619 18.6658 14.667 18.1221V16.7288C14.667 16.5464 14.5946 16.3716 14.4656 16.2426C14.3367 16.1137 14.1618 16.0413 13.9795 16.0413C13.5633 16.0413 13.3012 15.9285 13.1206 15.7828C12.9299 15.6297 12.7722 15.3932 12.6531 15.0595C12.4028 14.3674 12.3753 13.4554 12.3753 12.6029C12.3753 12.4286 12.3091 12.2609 12.1902 12.1335L12.0398 11.9713C11.9904 11.916 11.9384 11.8631 11.884 11.8127C11.8162 11.7485 11.609 11.5514 10.7987 10.742C10.3697 10.3121 10.1313 9.94911 10.0534 9.67136C10.0222 9.57509 10.0174 9.47219 10.0397 9.37345C10.0739 9.25956 10.1385 9.15718 10.2267 9.07736C10.3062 8.98929 10.4082 8.92463 10.5218 8.89036C10.6203 8.86845 10.7229 8.87352 10.8188 8.90503C11.0966 8.98295 11.4596 9.2222 11.8895 9.65211C12.3845 10.1471 12.8538 10.6109 13.2746 11.0271C13.9712 11.7164 14.5341 12.2738 14.8512 12.6129C14.9756 12.7464 15.1479 12.825 15.3302 12.8315C15.5125 12.8379 15.6899 12.7717 15.8234 12.6473C15.9568 12.523 16.0354 12.3507 16.0419 12.1684C16.0483 11.9861 15.9821 11.8087 15.8577 11.6752C15.4673 11.2671 15.07 10.8655 14.6661 10.4707V7.38703L17.2712 9.9922C17.6581 10.379 17.8753 10.9034 17.8753 11.4497V19.4779C17.8753 19.6602 17.9478 19.8351 18.0767 19.964C18.2056 20.0929 18.3805 20.1654 18.5628 20.1654C18.7452 20.1654 18.92 20.0929 19.049 19.964C19.1779 19.8351 19.2503 19.6602 19.2503 19.4779V11.4506C19.2504 10.9992 19.1616 10.5521 18.9889 10.135C18.8162 9.71789 18.563 9.33888 18.2438 9.01961L14.667 5.44278V3.89361C14.6667 3.34676 14.4493 2.82239 14.0626 2.4358C13.6758 2.0492 13.1513 1.83203 12.6045 1.83203H5.72949ZM11.3597 15.527C11.4477 15.7727 11.5622 16.0165 11.7107 16.2439C11.3606 16.4122 11.0652 16.676 10.8584 17.0049C10.6516 17.3338 10.542 17.7144 10.542 18.1029V18.7904H7.79199V18.1029C7.79199 17.5559 7.57469 17.0313 7.1879 16.6445C6.80111 16.2577 6.2765 16.0404 5.72949 16.0404H5.04199V5.95703H5.72949C6.2765 5.95703 6.80111 5.73973 7.1879 5.35294C7.57469 4.96615 7.79199 4.44154 7.79199 3.89453V3.20703H10.542V3.89453C10.542 4.44154 10.7593 4.96615 11.1461 5.35294C11.5329 5.73973 12.0575 5.95703 12.6045 5.95703H13.292V9.10853L12.8612 8.67953C12.3753 8.19278 11.8088 7.75553 11.1928 7.58137C10.8635 7.48385 10.5142 7.47594 10.1808 7.55845C9.974 7.61203 9.77779 7.70037 9.60057 7.8197C9.08231 7.74901 8.55463 7.8061 8.06348 7.986C7.57233 8.16591 7.13261 8.46317 6.78263 8.85189C6.43265 9.24062 6.18302 9.70901 6.05548 10.2163C5.92793 10.7236 5.92635 11.2543 6.05087 11.7623C6.17538 12.2704 6.42222 12.7402 6.76988 13.131C7.11754 13.5219 7.55547 13.8217 8.04554 14.0046C8.53561 14.1874 9.06295 14.2476 9.58162 14.18C10.1003 14.1124 10.5946 13.919 11.0214 13.6167C11.0562 14.2437 11.1415 14.9248 11.3597 15.527ZM7.33366 10.9987C7.33352 10.5995 7.46371 10.2111 7.70444 9.8926C7.94517 9.57411 8.28328 9.34291 8.66741 9.23411C8.63206 9.50533 8.65328 9.78093 8.72974 10.0435C8.90391 10.6604 9.33933 11.2269 9.82699 11.7146L10.4366 12.3214C10.1773 12.5703 9.85055 12.7375 9.497 12.8022C9.14345 12.8669 8.77869 12.8263 8.44805 12.6853C8.11742 12.5444 7.83552 12.3094 7.63738 12.0095C7.43925 11.7096 7.33363 11.3581 7.33366 10.9987ZM5.04199 3.89453C5.04199 3.71219 5.11442 3.53733 5.24336 3.4084C5.37229 3.27946 5.54716 3.20703 5.72949 3.20703H6.41699V3.89453C6.41699 4.07687 6.34456 4.25174 6.21563 4.38067C6.0867 4.5096 5.91183 4.58203 5.72949 4.58203H5.04199V3.89453ZM11.917 3.20703H12.6045C12.7868 3.20703 12.9617 3.27946 13.0906 3.4084C13.2196 3.53733 13.292 3.71219 13.292 3.89453V4.58203H12.6045C12.4222 4.58203 12.2473 4.5096 12.1184 4.38067C11.9894 4.25174 11.917 4.07687 11.917 3.89453V3.20703ZM13.292 17.4154V18.1029C13.292 18.2852 13.2196 18.4601 13.0906 18.589C12.9617 18.7179 12.7868 18.7904 12.6045 18.7904H11.917V18.1029C11.917 17.9205 11.9894 17.7457 12.1184 17.6167C12.2473 17.4878 12.4222 17.4154 12.6045 17.4154H13.292ZM6.41699 18.7904H5.72949C5.54716 18.7904 5.37229 18.7179 5.24336 18.589C5.11442 18.4601 5.04199 18.2852 5.04199 18.1029V17.4154H5.72949C5.91183 17.4154 6.0867 17.4878 6.21563 17.6167C6.34456 17.7457 6.41699 17.9205 6.41699 18.1029V18.7904Z" fill="white"/>
</svg>
