<svg width="19" height="19" viewBox="0 0 19 19" fill="none" xmlns="http://www.w3.org/2000/svg">
<path d="M1.78125 8.01596H3.26562V11.5785H2.375C2.13879 11.5785 1.91226 11.6723 1.74523 11.8393C1.57821 12.0063 1.48438 12.2329 1.48438 12.4691C1.48438 12.7053 1.57821 12.9318 1.74523 13.0988C1.91226 13.2659 2.13879 13.3597 2.375 13.3597H16.625C16.8612 13.3597 17.0877 13.2659 17.2548 13.0988C17.4218 12.9318 17.5156 12.7053 17.5156 12.4691C17.5156 12.2329 17.4218 12.0063 17.2548 11.8393C17.0877 11.6723 16.8612 11.5785 16.625 11.5785H15.7344V8.01596H17.2188C17.4123 8.01561 17.6005 7.95223 17.7548 7.8354C17.9091 7.71858 18.0211 7.55467 18.074 7.36848C18.1268 7.18229 18.1175 6.98395 18.0476 6.80349C17.9777 6.62302 17.8508 6.47025 17.6863 6.3683L9.96758 1.6183C9.82732 1.53078 9.66532 1.48437 9.5 1.48438C9.33468 1.48437 9.17268 1.53078 9.03242 1.6183L1.31367 6.3683C1.14916 6.47025 1.02234 6.62302 0.952397 6.80349C0.882456 6.98395 0.873205 7.18229 0.926043 7.36848C0.97888 7.55467 1.09093 7.71858 1.24524 7.8354C1.39954 7.95223 1.58771 8.01561 1.78125 8.01596ZM5.04688 8.01596H6.82812V11.5785H5.04688V8.01596ZM10.3906 8.01596V11.5785H8.60938V8.01596H10.3906ZM13.9531 11.5785H12.1719V8.01596H13.9531V11.5785ZM9.5 3.42181L14.0719 6.23471H4.92812L9.5 3.42181ZM18.7031 15.4378C18.7031 15.674 18.6093 15.9006 18.4423 16.0676C18.2752 16.2346 18.0487 16.3285 17.8125 16.3285H1.1875C0.951292 16.3285 0.724758 16.2346 0.557733 16.0676C0.390708 15.9006 0.296875 15.674 0.296875 15.4378C0.296875 15.2016 0.390708 14.9751 0.557733 14.8081C0.724758 14.641 0.951292 14.5472 1.1875 14.5472H17.8125C18.0487 14.5472 18.2752 14.641 18.4423 14.8081C18.6093 14.9751 18.7031 15.2016 18.7031 15.4378Z" fill="white"/>
</svg>
