<svg width="14" height="24" viewBox="0 0 14 24" fill="none" xmlns="http://www.w3.org/2000/svg">
<path d="M13.0909 3.60001V1.80001C13.0909 0.807586 12.29 0 11.3058 0H4.1652C3.18097 0 2.38005 0.807586 2.38005 1.80001V4.20008H1.19003C0.533758 4.20008 0 4.73829 0 5.40002L0.00119541 12.6335L0.564637 22.8668C0.599703 23.502 1.1217 24 1.75288 24H11.3371C11.969 24 12.4902 23.502 12.5253 22.8666L13.0907 12.6004V5.40033C13.0907 4.73859 12.557 4.20039 11.9007 4.20039H10.7107V3.60032L13.0909 3.60001ZM10.7109 1.80001C10.7109 1.46933 10.9774 1.19994 11.306 1.19994C11.6345 1.19994 11.9011 1.46933 11.9011 1.80001V2.40008H10.7111L10.7109 1.80001ZM3.57028 1.80001C3.57028 1.46933 3.83686 1.19994 4.1654 1.19994H9.62284C9.55729 1.38777 9.52083 1.58927 9.52083 1.80001V6.00009L3.57069 5.99989L3.57028 1.80001ZM1.75224 22.7999L1.22267 13.1997H11.8667L11.3371 22.7999H1.75224ZM11.901 5.40002L11.9022 11.9999H1.19036V5.40002H2.38038V7.20003H10.7109V5.40002H11.901ZM8.33075 19.8001H9.52078V21H8.33075V19.8001ZM5.95049 19.8001H7.14052V21H5.95049V19.8001ZM5.95049 14.9999H7.14052V16.1998H5.95049V14.9999ZM5.95049 17.4H7.14052V18.5999H5.95049V17.4ZM8.33075 14.9999H9.52078V16.1998H8.33075V14.9999ZM8.33075 17.4H9.52078V18.5999H8.33075V17.4ZM3.57044 19.8001H4.76047V21H3.57044V19.8001ZM3.57044 14.9999H4.76047V16.1998H3.57044V14.9999ZM3.57044 17.4H4.76047V18.5999H3.57044V17.4ZM9.52057 8.39996H10.7106V10.8H9.52057V8.39996Z" fill="white"/>
</svg>
