<svg width="25" height="24" viewBox="0 0 25 24" fill="none" xmlns="http://www.w3.org/2000/svg">
<path d="M10.6801 1.42115C12.8586 1.42115 14.6305 3.19353 14.6305 5.37154C14.6305 7.54956 12.8582 9.32194 10.6801 9.32194C8.50212 9.32194 6.72974 7.54956 6.72974 5.37154C6.72974 3.19353 8.50212 1.42115 10.6801 1.42115ZM10.6801 0C7.71359 0 5.30859 2.40499 5.30859 5.37154C5.30859 8.3381 7.71359 10.7431 10.6801 10.7431C13.6467 10.7431 16.0517 8.3381 16.0517 5.37154C16.0517 2.40499 13.6471 0 10.6801 0Z" fill="white"/>
<path d="M10.6809 3.9106C11.4865 3.9106 12.1418 4.56596 12.1418 5.37155C12.1418 6.17714 11.4865 6.83249 10.6809 6.83249C9.87528 6.83249 9.21993 6.17714 9.21993 5.37155C9.21993 4.56596 9.87528 3.9106 10.6809 3.9106ZM10.6809 2.77368C9.24592 2.77368 8.08301 3.937 8.08301 5.37155C8.08301 6.8061 9.24632 7.96941 10.6809 7.96941C12.1154 7.96941 13.2787 6.8061 13.2787 5.37155C13.2787 3.937 12.1154 2.77368 10.6809 2.77368Z" fill="white"/>
<path d="M18.9947 19.1019C19.3806 19.1019 19.6935 18.7891 19.6935 18.4031C19.6935 18.0172 19.3806 17.7043 18.9947 17.7043C18.6088 17.7043 18.2959 18.0172 18.2959 18.4031C18.2959 18.7891 18.6088 19.1019 18.9947 19.1019Z" fill="white"/>
<path d="M21.5074 21.2909C21.8933 21.2909 22.2062 20.978 22.2062 20.5921C22.2062 20.2062 21.8933 19.8933 21.5074 19.8933C21.1215 19.8933 20.8086 20.2062 20.8086 20.5921C20.8086 20.978 21.1215 21.2909 21.5074 21.2909Z" fill="white"/>
<path d="M20.2852 24C17.8034 24 15.7842 21.9808 15.7842 19.499C15.7842 17.0173 17.8034 14.998 20.2852 14.998C22.7669 14.998 24.7862 17.0173 24.7862 19.499C24.7862 21.9808 22.7669 24 20.2852 24ZM20.2852 16.4196C18.5871 16.4196 17.2053 17.801 17.2053 19.4994C17.2053 21.1979 18.5867 22.5793 20.2852 22.5793C21.9836 22.5793 23.365 21.1979 23.365 19.4994C23.365 17.801 21.9836 16.4196 20.2852 16.4196Z" fill="white"/>
<path d="M14.5389 15.9221H6.82289C5.5406 15.9221 4.49707 14.879 4.49707 13.5963C4.49707 12.3136 5.5402 11.2705 6.82289 11.2705H14.5389C15.8212 11.2705 16.8647 12.3136 16.8647 13.5963C16.8647 14.879 15.8216 15.9221 14.5389 15.9221ZM6.82289 12.8951C6.43593 12.8951 6.12124 13.2098 6.12124 13.5967C6.12124 13.9837 6.43593 14.2984 6.82289 14.2984H14.5389C14.9259 14.2984 15.2406 13.9837 15.2406 13.5967C15.2406 13.2098 14.9259 12.8951 14.5389 12.8951H6.82289Z" fill="white"/>
<path d="M16.5816 18.6871H2.23324C1.89744 18.6871 1.62417 18.4139 1.62417 18.0781V8.493C1.62417 8.15721 1.89744 7.88394 2.23324 7.88394H5.93188C5.66674 7.3841 5.47874 6.83757 5.38251 6.25977H2.23324C1.00171 6.25977 0 7.26147 0 8.493V18.0781C0 19.3096 1.00171 20.3113 2.23324 20.3113H16.5816C16.5243 20.0498 16.4939 19.7782 16.4939 19.4992C16.4939 19.2203 16.5243 18.9486 16.5812 18.6871H16.5816Z" fill="white"/>
<path d="M18.8636 6.25928H15.9791C15.8828 6.83708 15.6944 7.38361 15.4297 7.88345H18.8636C19.1994 7.88345 19.4727 8.15672 19.4727 8.49251V15.796C19.7342 15.7388 20.0058 15.7083 20.2847 15.7083C20.5637 15.7083 20.8353 15.7388 21.0968 15.796V8.49251C21.0968 7.26099 20.0951 6.25928 18.8636 6.25928Z" fill="white"/>
<path d="M19.0127 21.2914C18.8434 21.2914 18.6737 21.2268 18.5446 21.0973C18.2859 20.8387 18.2859 20.4196 18.5446 20.161L20.8075 17.8981C21.0661 17.6394 21.4851 17.6394 21.7438 17.8981C22.0024 18.1567 22.0024 18.5758 21.7438 18.8344L19.4809 21.0973C19.3518 21.2264 19.1821 21.2914 19.0127 21.2914Z" fill="white"/>
</svg>
