<svg width="25" height="25" viewBox="0 0 25 25" fill="none" xmlns="http://www.w3.org/2000/svg">
<path d="M20.833 20.8346H4.16634C3.61381 20.8346 3.0839 20.6151 2.6932 20.2244C2.3025 19.8337 2.08301 19.3038 2.08301 18.7513V6.2513C2.08301 5.69877 2.3025 5.16886 2.6932 4.77816C3.0839 4.38746 3.61381 4.16797 4.16634 4.16797H20.833C21.3855 4.16797 21.9154 4.38746 22.3061 4.77816C22.6968 5.16886 22.9163 5.69877 22.9163 6.2513V18.7513C22.9163 19.3038 22.6968 19.8337 22.3061 20.2244C21.9154 20.6151 21.3855 20.8346 20.833 20.8346ZM4.16634 6.2513V18.7513H20.833V6.2513H4.16634ZM16.1455 16.668C15.4548 16.668 14.7925 16.3936 14.3041 15.9052C13.8157 15.4168 13.5413 14.7545 13.5413 14.0638C13.5413 13.3731 13.8157 12.7108 14.3041 12.2224C14.7925 11.734 15.4548 11.4596 16.1455 11.4596C16.8362 11.4596 17.4986 11.734 17.9869 12.2224C18.4753 12.7108 18.7497 13.3731 18.7497 14.0638C18.7497 14.7545 18.4753 15.4168 17.9869 15.9052C17.4986 16.3936 16.8362 16.668 16.1455 16.668ZM11.9788 16.668C11.2882 16.668 10.6258 16.3936 10.1374 15.9052C9.64904 15.4168 9.37467 14.7545 9.37467 14.0638C9.37467 13.3731 9.64904 12.7108 10.1374 12.2224C10.6258 11.734 11.2882 11.4596 11.9788 11.4596C12.5445 11.4596 13.0934 11.6471 13.5413 11.993C13.2184 12.2329 12.956 12.5451 12.7752 12.9046C12.5945 13.2641 12.5003 13.6609 12.5003 14.0633C12.5003 14.4657 12.5945 14.8624 12.7752 15.2219C12.956 15.5814 13.2184 15.8936 13.5413 16.1336C13.0937 16.4793 12.5444 16.6671 11.9788 16.668Z" fill="white"/>
</svg>
